<svg xmlns="http://www.w3.org/2000/svg" viewBox="0 0 512 512"><rect width="512" height="512" rx="94" fill="#fffdf7"/><path d="M48 310C145 310 201 314 258 309C316 304 353 249 408 199C449 162 479 155 508 155" fill="none" stroke="#252525" stroke-width="27" stroke-linecap="round"/><path d="M48 310C145 310 201 314 258 309C316 314 356 355 408 391C449 420 479 423 508 423" fill="none" stroke="#252525" stroke-width="27" stroke-linecap="round"/><rect x="94" y="208" width="187" height="102" rx="20" fill="#f8e3a5" stroke="#252525" stroke-width="15"/><path d="M108 208C114 164 154 146 188 146C225 146 255 168 262 208" fill="#fffdf7" stroke="#252525" stroke-width="15"/><rect x="126" y="232" width="32" height="29" rx="5" fill="#fff" stroke="#252525" stroke-width="8"/><rect x="175" y="232" width="32" height="29" rx="5" fill="#fff" stroke="#252525" stroke-width="8"/><rect x="224" y="232" width="32" height="29" rx="5" fill="#fff" stroke="#252525" stroke-width="8"/><circle cx="130" cy="320" r="20" fill="#fffdf7" stroke="#252525" stroke-width="12"/><circle cx="244" cy="320" r="20" fill="#fffdf7" stroke="#252525" stroke-width="12"/></svg>